<?xml version="1.0" encoding="utf-8"?>
<svg xmlns="http://www.w3.org/2000/svg" viewBox="0 0 500 500">
  <g>
    <path d="M 402.146 457.411 C 379.772 458.896 339.003 458.341 299.434 456.012 C 286.297 455.23 273.384 454.491 270.761 454.361 C 260.655 453.849 237.89 452.006 228.62 450.937 C 226.23 450.659 223.692 450.399 222.971 450.356 C 222.251 450.321 217.957 449.548 213.414 448.653 C 154.738 437.079 110.276 402.8 84.93 349.59 C 75.824 330.491 70.289 312.801 66.875 291.922 C 65.685 284.64 65.302 277.393 65.285 261.51 C 65.267 239.718 66.336 228.666 70.194 210.705 C 71.445 204.884 71.671 202.391 70.976 202.156 C 68.265 201.252 51.687 192.824 47.89 190.417 C 35.004 182.258 25.402 170.963 19.746 157.313 C 17.069 150.848 16.497 148.363 15.714 139.865 C 15.454 136.998 15.089 133.87 14.906 132.914 C 14.594 131.307 15.254 124.693 16.557 116.466 C 17.782 108.727 20.763 106.252 23.431 110.778 C 28.148 118.754 38.331 125.12 50.496 127.695 C 71.42 132.141 84.07 139.109 91.934 150.535 L 94.636 154.462 L 96.391 151.943 C 97.355 150.561 100.622 146.964 103.638 143.957 C 110.841 136.79 119.565 132.592 135.647 128.56 C 142.339 126.87 149.81 124.531 152.252 123.343 C 156.423 121.305 162.931 115.179 166.98 109.49 C 167.962 108.102 169.187 107.227 169.708 107.552 C 170.221 107.865 171.376 110.978 172.263 114.441 C 174.687 123.906 174.487 141.863 171.846 151.118 C 169.5 159.346 164.947 168.339 161.019 172.492 C 159.455 174.143 157.492 176.567 156.658 177.888 C 153.66 182.632 142.347 190.521 129.157 197.056 C 122.006 200.601 116.298 203.65 116.472 203.833 C 116.637 204.015 116.967 205.727 117.21 207.639 C 117.445 209.55 117.861 211.697 118.149 212.418 C 118.426 213.138 118.835 214.694 119.061 215.893 C 121.876 230.986 134.388 254.281 145.718 265.533 C 153.869 273.631 160.576 279.418 162.801 280.269 C 163.878 280.678 164.756 281.417 164.756 281.912 C 164.756 282.398 165.277 282.798 165.903 282.798 C 166.536 282.798 169.266 283.997 171.959 285.456 C 187.565 293.911 207.314 297.674 226.447 295.849 C 245.024 294.076 256.007 291.096 296.706 276.786 C 324.51 267.001 339.734 263.787 361.629 263.065 C 377.4 262.535 385.793 263.3 398.054 266.367 C 423.52 272.745 445.895 287.152 461.735 307.379 C 465.662 312.392 468.869 316.893 468.869 317.38 C 468.869 317.875 469.181 318.405 469.564 318.57 C 472.318 319.718 483.362 345.567 484.908 354.481 C 485.16 355.915 485.577 358.062 485.846 359.261 C 486.341 361.433 486.794 363.857 487.489 367.949 C 489.331 378.863 489.357 396.145 487.54 405.026 C 487.263 406.372 486.845 408.458 486.611 409.657 C 485.855 413.471 480.538 423.837 476.793 428.772 C 468.737 439.416 452.185 449.33 436.867 452.684 C 435.833 452.919 434.104 453.319 433.026 453.596 C 427.614 454.96 414.346 456.594 402.146 457.411 Z M 342.444 447.366 C 355.113 447.844 397.185 447.036 408.481 446.09 C 428.039 444.464 440.481 441.292 451.846 435.029 C 460.414 430.301 464.159 427.321 468.277 421.908 C 471.144 418.145 476.098 407.928 475.403 407.215 C 475.255 407.068 478.67 393.695 478.67 393.695 L 478.104 383.685 C 477.453 372.408 474.36 355.924 471.075 346.315 C 469.868 342.778 466.913 336.191 464.498 331.681 C 453.507 311.098 438.422 296.049 418.759 286.057 C 399.67 276.342 386.132 273.231 364.601 273.614 C 339.795 274.057 333.008 275.752 272.064 296.735 C 249.959 304.347 234.98 307.127 216.16 307.127 C 191.465 307.127 171.264 300.263 150.958 284.961 C 127.646 267.401 111.562 239.623 106.08 207.447 C 104.212 196.465 104.446 196.1 116.706 190.809 C 122.014 188.514 129.41 184.917 133.145 182.806 C 145.353 175.898 156.518 162.969 160.324 151.326 C 162.149 145.748 164.495 131.063 163.696 130.264 C 163.443 130.012 160.55 131.185 157.266 132.862 C 153.704 134.687 146.361 137.163 139.123 138.979 C 117.792 144.331 109.173 150.361 101.935 165.002 C 92.994 183.076 88.85 216.163 92.064 243.715 C 93.376 254.95 98.954 279.723 100.562 281.452 C 100.979 281.903 101.326 282.99 101.326 283.859 C 101.326 286.369 118.184 320.169 119.79 320.882 C 120.146 321.047 120.443 321.724 120.443 322.402 C 120.443 323.08 120.833 323.636 121.31 323.636 C 121.789 323.636 122.179 324.192 122.179 324.87 C 122.179 325.548 122.518 326.225 122.936 326.39 C 123.353 326.547 126.176 329.805 129.201 333.628 C 143.285 351.414 162.801 366.585 181.335 374.17 C 185.123 375.717 188.216 377.281 188.216 377.655 C 188.216 378.02 188.797 378.099 189.519 377.82 C 190.24 377.551 190.823 377.743 190.823 378.255 C 190.823 378.768 191.404 378.967 192.126 378.689 C 192.847 378.42 193.43 378.62 193.43 379.149 C 193.43 379.679 194.307 380.114 195.384 380.123 C 196.462 380.132 199.295 380.731 201.684 381.452 C 207.149 383.12 219.426 385.075 229.115 385.832 C 239.281 386.622 256.024 384.824 268.154 381.643 C 281.474 378.159 284.029 377.873 285.827 379.662 C 287.712 381.548 287.67 385.588 285.749 387.196 C 283.889 388.751 279.814 390.54 278.138 390.54 C 275.609 390.54 267.328 394.172 264.217 396.64 C 262.446 398.048 258.049 403.018 254.443 407.684 C 244.059 421.117 236.005 428.72 225.344 435.132 L 220.33 438.148 L 222.737 438.956 C 226.464 440.207 252.705 439.53 257.293 438.06 C 258.249 437.757 260.404 437.339 262.072 437.123 C 271.36 435.949 289.78 428.242 299.165 421.587 C 304.517 417.799 314.474 407.805 317.855 402.844 C 319.367 400.611 320.826 398.604 321.096 398.361 C 321.373 398.118 322.53 396.163 323.685 394.016 C 327.899 386.153 328.855 385.205 332.331 385.502 C 335.163 385.735 335.571 386.092 336.267 388.881 C 336.935 391.609 336.632 392.766 333.869 398.004 C 327.83 409.457 315.013 423.95 304.579 431.126 C 299.044 434.932 283.411 442.674 281.249 442.674 C 280.257 442.674 279.449 443.013 279.449 443.422 C 279.449 444.594 295.229 445.585 342.444 447.366 Z M 187.781 430.449 C 201.605 435.062 217.22 430.231 231.66 416.868 C 238.551 410.491 249.194 397.588 248.5 396.449 C 248.256 396.066 241.931 395.754 234.432 395.745 C 226.933 395.745 218.454 395.363 215.586 394.902 C 212.719 394.442 208.999 393.868 207.331 393.626 C 196.948 392.113 182.472 387.273 170.907 381.452 C 139.749 365.76 117.01 342.031 99.658 307.084 C 88.067 283.745 82.593 263.109 80.325 234.253 C 79.283 220.95 78.075 218.796 77.727 229.622 C 77.641 232.35 77.362 234.957 77.111 235.426 C 76.26 236.99 75.686 275.569 76.45 279.426 C 76.676 280.565 77.345 285.014 77.927 289.315 C 79.621 301.652 79.89 303.2 81.438 309.299 C 82.567 313.748 87.363 327.407 90.753 335.801 C 94.097 344.09 102.239 360.478 103.203 360.85 C 103.603 361.016 103.933 361.52 103.933 361.98 C 103.933 362.432 104.324 363.283 104.811 363.857 C 105.288 364.44 108.704 369.009 112.396 374.032 C 123.71 389.42 136.821 402.089 151.506 411.82 C 154.971 414.114 157.805 416.33 157.805 416.738 C 157.805 417.146 158.247 417.476 158.786 417.476 C 159.334 417.476 164.904 420.005 171.169 423.098 C 177.441 426.183 184.914 429.494 187.781 430.449 Z M 70.047 189.513 C 75.538 192.016 80.499 194.084 81.064 194.111 C 81.628 194.144 82.523 191.946 83.08 189.175 C 83.619 186.429 84.818 181.338 85.748 177.871 C 86.668 174.404 87.424 170.294 87.424 168.748 C 87.424 164.203 82.95 155.957 77.971 151.318 C 72.027 145.791 65.025 142.637 50.635 139.014 C 44.101 137.371 35.951 134.643 32.519 132.949 C 29.078 131.255 26.089 129.873 25.871 129.873 C 25.655 129.873 25.724 132.757 26.02 136.277 C 27.297 151.343 34.666 165.655 46.082 175.247 C 53.416 181.407 57.325 183.727 70.047 189.513 Z M 382.456 230.56 C 371.074 233.428 359.944 227.772 355.947 217.092 C 353.714 211.123 353.705 206.787 355.912 200.896 C 359.11 192.355 366.791 187.272 376.574 187.237 C 382.935 187.22 386.497 188.506 390.998 192.459 C 396.063 196.899 397.785 201.087 397.785 208.943 C 397.785 213.981 397.341 216.502 396.003 219.135 C 393.518 224 387.131 229.387 382.456 230.56 Z M 406.308 97.7 C 406.308 98.838 404.84 98.863 404.136 97.725 C 403.84 97.25 400.59 94.562 396.916 91.774 C 366.964 69.006 333.677 54.303 298.131 48.164 C 279.728 44.976 254.608 44.464 234.701 46.852 C 230.209 47.389 213.188 50.74 208.418 52.015 C 205.906 52.703 203.856 53.04 203.856 52.79 C 203.856 52.528 203.283 52.803 202.588 53.378 C 201.893 53.953 200.945 54.191 200.476 53.903 C 200.015 53.615 199.407 53.74 199.138 54.178 C 198.459 55.278 195.168 54.328 195.168 53.04 C 195.168 50.44 221.886 42.588 240.35 39.763 C 252.61 37.887 282.734 37.662 295.09 39.362 C 311.85 41.675 339.082 49.277 342.4 52.578 C 342.853 53.04 343.834 53.403 344.573 53.403 C 347.493 53.403 372.169 67.631 381.77 74.845 C 391.693 82.297 406.308 95.912 406.308 97.7 Z M 418.759 175.308 C 416.683 176.602 410.096 176.723 406.42 175.533 C 398.757 173.057 394.465 166.062 395.195 157.26 C 395.673 151.413 398.861 146.92 404.587 143.992 C 410.522 140.96 419.219 141.907 423.834 146.078 C 429.412 151.126 430.854 161.57 426.919 168.295 C 424.512 172.396 422.748 174.221 420.906 174.499 C 420.28 174.595 419.316 174.952 418.759 175.308 Z M 368.242 221.124 C 376.47 227.085 387.679 222.741 390.781 212.375 C 392.796 205.667 388.139 197.411 380.762 194.588 C 377.365 193.293 376.6 193.284 372.612 194.467 C 365.679 196.526 361.691 201.809 361.691 208.943 C 361.691 213.999 363.785 217.901 368.242 221.124 Z M 358.284 152.464 C 358.354 153.419 358.336 154.185 358.25 154.158 C 358.154 154.141 355.938 152.152 353.305 149.736 C 342.21 139.544 326.074 129.412 309.861 122.468 C 300.095 118.279 285.479 113.703 279.016 112.803 C 277.581 112.603 274.532 112.053 272.238 111.59 C 269.944 111.128 266.668 110.753 264.956 110.753 C 261.438 110.753 255.12 109.065 255.12 108.127 C 255.12 107.077 270.256 106.252 277.894 106.877 C 293.282 108.127 308.688 112.566 322.39 119.692 C 334.025 125.745 353.184 142.219 356.156 148.737 C 356.651 149.831 357.302 150.726 357.606 150.726 C 357.902 150.726 358.206 151.508 358.284 152.464 Z M 378.573 127.233 C 372.673 130.238 366.973 129.03 362.602 123.843 C 359.744 120.442 359.066 118.017 359.709 113.416 C 360.726 106.164 364.853 102.939 373.133 102.939 C 381.154 102.939 385.455 107.39 385.455 115.704 C 385.446 121.017 383.125 124.906 378.573 127.233 Z M 408.332 168.608 C 411.904 170.207 415.649 169.503 418.594 166.68 C 422.626 162.821 423.243 160.188 421.201 155.575 C 419.272 151.213 417.013 149.857 411.66 149.857 C 401.242 149.857 398.679 164.289 408.332 168.608 Z M 368.946 119.442 C 372.473 122.968 377.634 120.605 377.634 115.466 C 377.634 112.091 375.723 109.89 372.794 109.89 C 367.998 109.89 365.53 116.029 368.946 119.442 Z M 386.81 207.874 C 386.489 211.757 383.022 212.201 382.509 208.421 C 382.379 207.508 380.841 205.823 379.086 204.667 C 375.054 202.009 374.785 199.384 378.564 199.384 C 380.023 199.384 381.979 199.784 382.9 200.279 C 385.012 201.408 387.019 205.302 386.81 207.874 Z" fill="rgb(53,61,63)" style="stroke-width: 1;"/>
    <path d="M 355.715 420.165 C 352.855 423.245 348.685 423.585 346.285 420.945 C 343.335 417.685 344.265 414.735 349.885 409.545 C 365.875 394.755 386.305 387.775 409.635 389.125 C 427.695 390.175 443.115 396.085 454.395 406.295 C 461.575 412.795 462.605 416.435 458.095 419.395 C 454.985 421.425 452.645 420.565 445.785 414.855 C 439.465 409.595 427.765 403.915 419.755 402.215 C 405.015 399.085 386.705 401.165 374.485 407.345 C 367.595 410.835 358.805 416.835 355.715 420.165 Z M 360.885 362.945 C 353.545 370.045 352.185 370.475 348.555 366.855 C 344.935 363.225 345.365 361.865 352.475 354.505 L 357.095 349.745 L 351.365 344.285 C 348.215 341.275 345.635 337.945 345.635 336.875 C 345.635 334.755 350.015 330.775 352.345 330.775 C 353.135 330.775 356.365 333.235 359.505 336.235 L 365.235 341.695 L 370.185 336.795 C 376.165 330.865 379.265 329.845 382.395 332.765 C 385.245 335.425 385.245 338.245 382.385 341.185 C 381.145 342.455 378.825 344.905 377.225 346.615 L 374.315 349.725 L 378.975 354.705 C 381.535 357.445 383.685 360.275 383.755 360.985 C 384.185 365.845 382.105 368.775 378.225 368.775 C 377.115 368.775 373.825 366.425 370.915 363.565 L 365.635 358.345 L 360.885 362.945 Z M 429.235 363.675 C 423.545 369.295 420.835 369.975 417.675 366.585 C 414.625 363.315 415.125 361.495 420.755 355.335 L 425.875 349.725 L 420.755 344.315 C 417.945 341.335 415.635 338.225 415.635 337.415 C 415.635 334.605 416.915 332.615 419.325 331.705 C 422.495 330.495 426.155 332.395 430.965 337.715 L 434.645 341.785 L 440.685 336.225 C 445.505 331.795 447.175 330.805 448.935 331.345 C 455.475 333.345 455.325 337.505 448.455 344.455 L 443.275 349.705 L 448.455 355.175 C 454.035 361.075 454.935 364.295 451.805 367.125 C 448.775 369.865 445.945 369.035 440.025 363.675 L 434.395 358.575 L 429.235 363.675 Z" fill="rgb(51,55,58)" style="stroke-width: 1;"/>
  </g>
</svg>